<svg id="Capa_1" enable-background="new 0 0 511.996 511.996" height="30" viewBox="0 0 511.996 511.996" width="30"
    xmlns="http://www.w3.org/2000/svg">
    <g>
        <g>
            <path d="m21.03 369.078c2.358 21.51 19.781 38.315 41.372 39.826 1.786.126 3.56.252 5.334.366 13.165.893 23.399 11.826 23.399 25.024v49.889c0 16.782 19.209 26.307 32.557 16.141 24.36-18.557 56.769-46.157 76.653-74.776 4.705-6.777 12.478-10.727 20.732-10.681 61.222.309 122.444-1.66 183.666-5.964 17.068-1.191 31.561-11.917 38.018-27.005 1.717-3.961 2.862-8.242 3.354-12.718 9.067-82.824 9.067-165.659 0-248.494-2.358-21.487-19.793-38.212-41.349-39.723-91.203-6.399-182.395-7.681-273.587-3.847-22.918.95-45.848 2.232-68.766 3.847-21.567 1.512-39.013 18.237-41.371 39.724-9.067 82.801-9.067 165.591-.012 248.391z" fill="#f4dd45"/>
            <path d="m60.318 120.685c-9.065 82.804-9.065 165.59 0 248.393 2.363 21.509 19.773 38.31 41.374 39.824 1.773.129 3.563.24 5.336.369 13.163.886 23.392 11.816 23.392 25.017v49.885c0 3.415.794 6.517 2.178 9.231-3.065 2.418-6.037 4.726-8.917 6.923-13.348 10.154-32.549.628-32.549-16.155v-49.885c0-13.201-10.247-24.13-23.41-25.017-1.772-.129-3.545-.24-5.336-.369-21.583-1.514-39.011-18.315-41.356-39.824-9.065-82.804-9.065-165.589 0-248.393 2.363-21.49 19.81-38.217 41.374-39.731 22.912-1.606 45.842-2.899 68.773-3.84 40.839-1.717 81.696-2.419 122.535-2.068-27.749.203-55.498.905-83.247 2.068-22.912.941-45.842 2.234-68.772 3.84-21.564 1.515-39.011 18.242-41.375 39.732z" fill="#eab14d"/>
            <g>
                <path d="m466.003 65.18 14.244-26.371c3.6-6.665 1.111-15.001-5.554-18.602l-20.453-11.048c-6.675-3.605-15.001-1.111-18.602 5.554l-14.244 26.371" fill="#dfeaef"/>
                <path d="m471.01 18.218c-6.674-3.605-15.001-1.111-18.602 5.554l-14.244 26.371-16.771-9.059 14.244-26.371c3.6-6.665 11.927-9.159 18.602-5.554z" fill="#b4d0d5"/>
                <path d="m415.828 200.856c-48.696 90.153-106.172 153.527-128.374 141.534-22.202-11.992-.716-94.805 47.98-184.959 24.691-45.712 51.645-84.544 75.101-110.145 6.376-6.959 16.675-8.664 24.979-4.179l21.051 11.371c8.304 4.485 12.525 14.034 10.201 23.181-8.549 33.654-26.246 77.486-50.938 123.197z" fill="#6bbef6"/>
                <path d="m287.454 342.391c-22.202-11.992-.716-94.805 47.98-184.959 24.691-45.712 51.642-84.541 75.099-110.15 6.376-6.953 16.679-8.657 24.98-4.173l7.628 4.12c-2.281-1.232-7.312 3.32-12.211 11.071-18.063 28.523-41.658 69.164-66.349 114.877-48.695 90.152-83.231 165.916-77.127 169.214z" fill="#528ecb"/>
            </g>
        </g>
        <g>
            <path d="m75.938 168.454h174.356c4.143 0 7.5-3.358 7.5-7.5s-3.357-7.5-7.5-7.5h-174.356c-4.143 0-7.5 3.358-7.5 7.5s3.358 7.5 7.5 7.5z"/>
            <path d="m75.938 206.118h174.356c4.143 0 7.5-3.358 7.5-7.5s-3.357-7.5-7.5-7.5h-174.356c-4.143 0-7.5 3.358-7.5 7.5s3.358 7.5 7.5 7.5z"/>
            <path d="m75.938 243.781h174.356c4.143 0 7.5-3.358 7.5-7.5s-3.357-7.5-7.5-7.5h-174.356c-4.143 0-7.5 3.358-7.5 7.5s3.358 7.5 7.5 7.5z"/>
            <path d="m75.938 281.445h174.356c4.143 0 7.5-3.358 7.5-7.5s-3.357-7.5-7.5-7.5h-174.356c-4.143 0-7.5 3.358-7.5 7.5s3.358 7.5 7.5 7.5z"/>
            <path d="m75.938 319.108h68.362c4.143 0 7.5-3.358 7.5-7.5s-3.357-7.5-7.5-7.5h-68.362c-4.143 0-7.5 3.358-7.5 7.5s3.358 7.5 7.5 7.5z"/>
            <path d="m480.27 54.548 6.577-12.175c5.562-10.298 1.708-23.202-8.59-28.764l-20.453-11.049c-4.991-2.695-10.731-3.285-16.166-1.661-5.432 1.623-9.906 5.264-12.599 10.25l-12.748 23.6c-4.212 1.496-8.108 4.001-11.29 7.473-7.873 8.596-16.072 18.589-24.368 29.672-82.963-4.983-166.972-5.753-249.762-2.27-23 .954-46.211 2.253-68.98 3.862-25.236 1.755-45.556 21.262-48.314 46.386-9.074 82.934-9.078 167.057-.01 250.034 2.762 25.169 23.08 44.719 48.289 46.481 1.808.132 3.614.254 5.371.363 4.897.331 9.467 2.714 12.534 6.539 1.481 1.848 3.658 2.809 5.855 2.809 1.646 0 3.303-.54 4.688-1.649 3.231-2.591 3.75-7.312 1.158-10.543-5.686-7.09-14.15-11.508-23.266-12.124-1.744-.108-3.496-.227-5.271-.356-17.99-1.258-32.478-15.202-34.447-33.153-8.95-81.892-8.946-164.917.009-246.766 1.967-17.904 16.453-31.807 34.453-33.058 22.634-1.599 45.698-2.891 68.558-3.838 79.125-3.329 159.363-2.753 238.722 1.7-5.014 7.18-10.03 14.7-14.998 22.513-2.223 3.495-1.19 8.13 2.305 10.353 3.495 2.221 8.13 1.191 10.354-2.304 16.213-25.496 32.874-47.806 48.18-64.517 4.053-4.421 10.585-5.51 15.887-2.648l21.05 11.37c5.306 2.866 7.977 8.923 6.495 14.735-8.792 34.614-26.641 77.757-50.259 121.482-9.618 17.804-19.693 34.771-29.889 50.414l-63.077-34.071c7.493-17.107 16.145-34.833 25.764-52.644 2.989-5.533 5.966-10.888 8.848-15.915 2.06-3.593.816-8.176-2.776-10.237-3.594-2.06-8.177-.817-10.237 2.777-2.944 5.136-5.982 10.602-9.032 16.246-23.829 44.125-42.024 87.976-51.234 123.475-8.617 33.212-8.543 55.499.172 66.484l-2.007 3.269c-2.167 3.53-1.063 8.148 2.468 10.316 1.224.751 2.578 1.109 3.917 1.109 2.521 0 4.982-1.271 6.398-3.577l2.296-3.739c.888.111 1.795.171 2.723.171 13.731-.001 31.73-12.189 53.694-36.404 24.641-27.166 51.337-66.425 75.171-110.545 7.263-13.447 13.986-26.852 20.1-40.002.51 7.173.93 14.355 1.303 21.541-.604.904-1.207 1.805-1.807 2.702-25.357 37.918-40.82 61.879-39.273 76.062.419 3.841 3.669 6.687 7.447 6.687.271 0 .546-.015.822-.045 4.117-.449 7.092-4.151 6.643-8.269-.843-7.723 12.947-30.006 27.211-51.643 1.54 52.35-.519 104.869-6.208 156.889-.416 3.712-1.353 7.267-2.802 10.602-5.519 12.89-17.645 21.503-31.65 22.48-60.533 4.251-122.129 6.257-183.099 5.941-10.786-.066-20.854 5.15-26.924 13.909-19.433 27.952-51.537 55.172-75.046 73.085-3.944 3.004-8.953 3.482-13.396 1.281-4.452-2.206-7.11-6.491-7.11-11.465v-33.24c0-4.142-3.357-7.5-7.5-7.5s-7.5 3.358-7.5 7.5v33.24c0 10.641 5.921 20.185 15.452 24.906 3.94 1.952 8.162 2.913 12.356 2.913 5.942 0 11.831-1.929 16.787-5.704 24.366-18.566 57.726-46.901 78.278-76.463 3.242-4.678 8.635-7.463 14.439-7.463h.088c61.319.303 123.316-1.701 184.22-5.978 19.64-1.369 36.65-13.455 44.377-31.503 2.029-4.671 3.354-9.675 3.937-14.894 6.521-59.634 8.346-119.904 5.495-179.84 21.179-31.747 41.838-63.765 45.397-85.847 3.51-21.807-5.257-39.547-24.2-49.758zm-144.121 250.342c-26.566 29.289-40.869 33.202-45.133 30.898-4.264-2.302-8.828-16.41 1.102-54.684 4.223-16.278 10.444-34.43 18.274-53.594l60.572 32.718c-11.738 17.062-23.513 32.201-34.815 44.662zm102.925-268.383c-1.771-.956-3.61-1.681-5.479-2.229l8.644-16c.789-1.462 2.102-2.53 3.695-3.006 1.592-.477 3.277-.304 4.742.487l20.453 11.049c3.021 1.632 4.151 5.417 2.521 8.438l-8.643 16c-1.487-1.265-3.105-2.407-4.879-3.366zm50.586 65.413c-2.48 15.384-16.438 39.144-32.052 63.207-.688-9.904-1.504-19.794-2.45-29.667 8.128-20.001 14.553-38.953 18.871-55.951.938-3.682 1.084-7.405.558-10.989 12.417 7.209 17.486 18.412 15.073 33.4z"/>
        </g>
    </g>
</svg>