<?xml version="1.0" encoding="iso-8859-1"?>
<!-- Generator: Adobe Illustrator 19.0.0, SVG Export Plug-In . SVG Version: 6.00 Build 0)  -->
<svg xmlns="http://www.w3.org/2000/svg"
	xmlns:xlink="http://www.w3.org/1999/xlink" version="1.1" id="Layer_1" x="0px" y="0px" viewBox="0 0 505.003 505.003" style="enable-background:new 0 0 505.003 505.003;" xml:space="preserve" width="30" height="30">
	<g>
		<g>
			<polyline style="fill:#E5E9EA;" points="104.254,142.764 104.254,62.014 47.004,62.014 47.004,142.764   "/>
			<polyline style="fill:#D1D1D1;" points="73.003,142.764 73.003,62.014 47.004,62.014 47.004,142.764   "/>
			<path style="fill:#FCB65F;" d="M497.503,160.524v261.95c0,17.96-14.56,32.52-32.52,32.52H40.023c-17.96,0-32.52-14.56-32.52-32.52    v-261.95c0-17.96,14.56-32.52,32.52-32.52h64.303c13.85,0,26.19-8.77,30.73-21.86l11.87-34.26c4.54-13.09,16.87-21.87,30.73-21.87    h189.697c13.85,0,26.18,8.78,30.72,21.87l11.88,34.26c4.54,13.09,16.87,21.86,30.72,21.86h24.31    C482.943,128.004,497.503,142.564,497.503,160.524z"/>
			<path style="fill:#E29A4B;" d="M65.523,454.994h-25.5c-17.96,0-32.52-14.56-32.52-32.52v-261.95c0-17.96,14.56-32.52,32.52-32.52    h23.48v0.06c-17.02,1.05-30.5,15.18-30.5,32.46v261.95C33.003,440.434,47.563,454.994,65.523,454.994z"/>
			<path style="fill:#E29A4B;" d="M203.156,50.014c-13.86,0-26.19,8.78-30.73,21.87l-11.87,34.26    c-4.54,13.09-16.88,21.86-30.73,21.86h-21.82v-0.21c12.32-1.4,22.92-9.73,27.05-21.65l11.87-34.26    c4.54-13.09,16.87-21.87,30.73-21.87H203.156z"/>
			<path style="fill:#53BCE9;" d="M497.503,216.504v205.97c0,17.96-14.56,32.52-32.52,32.52H40.023c-17.96,0-32.52-14.56-32.52-32.52    v-205.97H497.503z"/>
			<path style="fill:#36A6CE;" d="M65.523,454.994h-25.5c-17.96,0-32.52-14.56-32.52-32.52v-205.97h25.5v205.97    C33.003,440.434,47.563,454.994,65.523,454.994z"/>
			<circle style="fill:#E5E9EA;" cx="252.5" cy="289.005" r="135.487"/>
			<path style="fill:#566368;" d="M348.303,289.004c0,28.21-12.19,53.57-31.6,71.11c-16.99,15.35-39.49,24.7-64.2,24.7    c-24.7,0-47.21-9.35-64.2-24.7c-19.41-17.53-31.61-42.9-31.61-71.11s12.2-53.58,31.61-71.1c16.99-15.36,39.5-24.7,64.2-24.7    c24.71,0,47.21,9.35,64.2,24.7C336.113,235.434,348.303,260.794,348.303,289.004z"/>
			<g>
				<path style="fill:#6F7B7F;" d="M320.239,221.261c19.947,19.947,29.26,46.499,27.938,72.627     c-26.128,1.322-52.68-7.99-72.627-27.938s-29.26-46.499-27.931-72.62C273.74,192.001,300.292,201.313,320.239,221.261z"/>
				<path style="fill:#6F7B7F;" d="M229.447,312.053c19.947,19.947,29.26,46.499,27.938,72.627     c-26.121,1.329-52.687-7.983-72.634-27.931s-29.26-46.514-27.924-72.627C182.947,282.793,209.499,292.106,229.447,312.053z"/>
			</g>
			<circle style="fill:#435054;" cx="252.5" cy="289.005" r="30.958"/>
			<path style="fill:#E5E9EA;" d="M301.175,120.507h58.937c7.748,0,14.03-6.281,14.03-14.03V91.039c0-7.748-6.281-14.03-14.03-14.03    h-58.937c-7.748,0-14.03,6.281-14.03,14.03v15.439C287.146,114.226,293.427,120.507,301.175,120.507z"/>
			<circle style="fill:#566368;" cx="100.654" cy="400.111" r="27.117"/>
		</g>
		<g>
			<path d="M109.513,289.005c0,78.843,64.144,142.987,142.987,142.987c37.063,0,72.203-14.122,98.947-39.765    c2.99-2.867,3.09-7.614,0.223-10.604c-2.866-2.991-7.614-3.09-10.604-0.223c-23.938,22.952-55.392,35.592-88.566,35.592    c-70.572,0-127.987-57.415-127.987-127.987c0-70.573,57.415-127.988,127.987-127.988c70.573,0,127.988,57.415,127.988,127.988    c0,27.394-8.528,53.516-24.661,75.543c-2.447,3.342-1.723,8.035,1.619,10.482c3.343,2.448,8.035,1.723,10.482-1.619    c18.03-24.616,27.56-53.803,27.56-84.406c0-78.844-64.144-142.988-142.988-142.988    C173.657,146.017,109.513,210.161,109.513,289.005z"/>
			<path d="M252.5,185.701c-56.962,0-103.304,46.342-103.304,103.304S195.538,392.309,252.5,392.309s103.304-46.342,103.304-103.304    S309.462,185.701,252.5,185.701z M252.5,377.309c-48.691,0-88.304-39.613-88.304-88.304s39.613-88.304,88.304-88.304    s88.304,39.613,88.304,88.304S301.191,377.309,252.5,377.309z"/>
			<path d="M252.5,250.547c-21.206,0-38.458,17.252-38.458,38.458s17.252,38.458,38.458,38.458s38.458-17.252,38.458-38.458    S273.706,250.547,252.5,250.547z M252.5,312.463c-12.935,0-23.458-10.523-23.458-23.458c0-12.935,10.523-23.458,23.458-23.458    s23.458,10.523,23.458,23.458C275.958,301.94,265.435,312.463,252.5,312.463z"/>
			<path d="M360.112,128.008c11.872,0,21.53-9.658,21.53-21.53V91.039c0-11.872-9.658-21.53-21.53-21.53h-58.937    c-11.872,0-21.53,9.658-21.53,21.53v15.438c0,11.872,9.658,21.53,21.53,21.53H360.112z M294.646,106.478V91.039    c0-3.601,2.929-6.53,6.53-6.53h58.937c3.601,0,6.53,2.929,6.53,6.53v15.438c0,3.601-2.929,6.53-6.53,6.53h-58.937    C297.575,113.008,294.646,110.078,294.646,106.478z"/>
			<path d="M66.038,400.112c0,19.088,15.529,34.617,34.617,34.617s34.617-15.529,34.617-34.617s-15.529-34.617-34.617-34.617    S66.038,381.024,66.038,400.112z M120.271,400.112c0,10.817-8.8,19.617-19.617,19.617s-19.617-8.8-19.617-19.617    s8.8-19.617,19.617-19.617S120.271,389.295,120.271,400.112z"/>
			<path d="M505.003,216.504c0-0.023-0.003-0.045-0.003-0.068v-55.908c0-22.067-17.953-40.02-40.02-40.02h-24.303    c-10.651,0-20.151-6.761-23.64-16.825l-11.877-34.26c-5.581-16.097-20.776-26.911-37.813-26.911H208.152    c-4.142,0-7.5,3.358-7.5,7.5s3.358,7.5,7.5,7.5h159.196c10.651,0,20.151,6.761,23.64,16.824l11.877,34.26    c5.581,16.097,20.776,26.912,37.813,26.912h24.303c13.796,0,25.02,11.224,25.02,25.02v48.476h-98.025c-4.142,0-7.5,3.358-7.5,7.5    s3.358,7.5,7.5,7.5H490v198.468c0,13.796-11.224,25.02-25.02,25.02H40.02c-13.796,0-25.02-11.224-25.02-25.02V224.004h98.021    c4.142,0,7.5-3.358,7.5-7.5s-3.358-7.5-7.5-7.5H15v-48.476c0-13.796,11.224-25.02,25.02-25.02h64.306    c17.036,0,32.231-10.815,37.812-26.912l11.877-34.26c3.489-10.063,12.989-16.824,23.64-16.824h5.496c4.142,0,7.5-3.358,7.5-7.5    s-3.358-7.5-7.5-7.5h-5.496c-17.036,0-32.232,10.814-37.813,26.911l-11.877,34.26c-3.489,10.063-12.988,16.825-23.639,16.825    H40.02c-22.067,0-40.02,17.953-40.02,40.02v261.944c0,22.067,17.953,40.02,40.02,40.02h424.96c22.067,0,40.02-17.953,40.02-40.02    v-205.9C505,216.549,505.003,216.527,505.003,216.504z"/>
			<path d="M47.004,113.764c4.142,0,7.5-3.358,7.5-7.5v-36.75h42.25v36.75c0,4.142,3.358,7.5,7.5,7.5s7.5-3.358,7.5-7.5v-44.25    c0-4.142-3.358-7.5-7.5-7.5h-57.25c-4.142,0-7.5,3.358-7.5,7.5v44.25C39.504,110.406,42.862,113.764,47.004,113.764z"/>
		</g>
	</g>















</svg>
