<svg id="Capa_1" enable-background="new 0 0 512 512" height="24" viewBox="0 0 512 512" width="24"
    xmlns="http://www.w3.org/2000/svg">
    <g>
        <path d="m500.668 512h-200.714c-6.259 0-11.332-5.074-11.332-11.332v-489.336c0-6.258 5.074-11.332 11.332-11.332h200.714c6.258 0 11.332 5.074 11.332 11.332v489.336c0 6.258-5.074 11.332-11.332 11.332z" fill="#5a5a5a"/>
        <path d="m500.668 0h-40.883c6.259 0 11.332 5.073 11.332 11.332v489.336c0 6.259-5.073 11.332-11.332 11.332h40.883c6.259 0 11.332-5.073 11.332-11.332v-489.336c0-6.259-5.073-11.332-11.332-11.332z" fill="#444"/>
        <path d="m288.622 48.247h223.378v93.403h-223.378z" fill="#9c9c9c"/>
        <path d="m288.622 141.65h223.378v93.403h-223.378z" fill="#acacac"/>
        <path d="m471.117 48.247h40.883v93.403h-40.883z" fill="#838383"/>
        <path d="m471.117 141.65h40.883v93.403h-40.883z" fill="#9c9c9c"/>
        <path d="m319.528 105.594v-21.291c0-2.845 2.306-5.151 5.151-5.151h151.265c2.845 0 5.151 2.306 5.151 5.151v21.291c0 2.845-2.306 5.151-5.151 5.151h-151.265c-2.845-.001-5.151-2.307-5.151-5.151z" fill="#444"/>
        <path d="m319.528 198.997v-21.291c0-2.845 2.306-5.151 5.151-5.151h151.265c2.845 0 5.151 2.306 5.151 5.151v21.291c0 2.845-2.306 5.151-5.151 5.151h-151.265c-2.845 0-5.151-2.307-5.151-5.151z" fill="#444"/>
        <path d="m169.25 318.434h61.811v165.77h-61.811z" fill="#838383"/>
        <path d="m293.387 466.5h-186.463c-3.983 0-7.211 3.229-7.211 7.211v31.077c0 3.983 3.229 7.211 7.211 7.211h186.463c3.983 0 7.211-3.229 7.211-7.211v-31.077c0-3.982-3.228-7.211-7.211-7.211z" fill="#444"/>
        <path d="m385.889 427.704h-371.466c-7.966 0-14.423-6.458-14.423-14.423v-257.209c0-7.965 6.457-14.423 14.423-14.423h371.466c7.965 0 14.423 6.457 14.423 14.423v257.209c-.001 7.965-6.458 14.423-14.423 14.423z" fill="#838383"/>
        <path d="m28.845 391.647v-213.94c0-3.983 3.229-7.211 7.211-7.211h328.198c3.983 0 7.211 3.229 7.211 7.211v213.941c0 3.983-3.229 7.211-7.211 7.211h-328.198c-3.982-.001-7.211-3.229-7.211-7.212z" fill="#b2caec"/>
        <path d="m385.889 427.704h-371.466c-7.966 0-14.423-6.458-14.423-14.423v-257.209c0-7.965 6.457-14.423 14.423-14.423h371.466c7.965 0 14.423 6.457 14.423 14.423v257.209c-.001 7.965-6.458 14.423-14.423 14.423z" fill="#444"/>
        <path d="m28.845 391.647v-213.94c0-3.983 3.229-7.211 7.211-7.211h328.198c3.983 0 7.211 3.229 7.211 7.211v213.941c0 3.983-3.229 7.211-7.211 7.211h-328.198c-3.982-.001-7.211-3.229-7.211-7.212z" fill="#b2caec"/>
        <path d="m364.255 170.495h-40.883c3.983 0 7.211 3.228 7.211 7.211v213.941c0 3.983-3.228 7.211-7.211 7.211h40.883c3.983 0 7.211-3.228 7.211-7.211v-213.94c0-3.983-3.229-7.212-7.211-7.212z" fill="#82aee3"/>
        <path d="m473.518 298.237h-39.147c-2.845 0-5.151-2.306-5.151-5.151v-20.604c0-2.845 2.306-5.151 5.151-5.151h39.147c2.845 0 5.151 2.306 5.151 5.151v20.604c0 2.845-2.306 5.151-5.151 5.151z" fill="#acacac"/>
        <path d="m473.518 267.332h-2.401v30.905h2.401c2.845 0 5.151-2.306 5.151-5.151v-20.604c0-2.844-2.306-5.15-5.151-5.15z" fill="#9c9c9c"/>
    </g>
</svg>