<?xml version="1.0" encoding="iso-8859-1"?>
<!-- Generator: Adobe Illustrator 16.0.0, SVG Export Plug-In . SVG Version: 6.00 Build 0)  -->
<!DOCTYPE svg PUBLIC "-//W3C//DTD SVG 1.1//EN" "http://www.w3.org/Graphics/SVG/1.1/DTD/svg11.dtd">
<svg version="1.1" id="Capa_1" xmlns="http://www.w3.org/2000/svg" xmlns:xlink="http://www.w3.org/1999/xlink" x="0px" y="0px"
	 width="527.417px" height="527.416px" viewBox="0 0 527.417 527.416" style="enable-background:new 0 0 527.417 527.416;"
	 xml:space="preserve">
<g>
	<g>
		<path d="M428.523,0H98.894C71.653,0,48.36,9.682,29.021,29.009C9.676,48.36,0.006,71.647,0.006,98.887v329.634
			c0,27.24,9.669,50.539,29.015,69.867c19.339,19.34,42.632,29.027,69.872,29.027h329.629c27.24,0,50.526-9.682,69.872-29.027
			c19.339-19.328,29.015-42.627,29.015-69.865V98.893c0-27.24-9.676-50.526-29.015-69.878C479.049,9.682,455.756,0,428.523,0z
			 M218.38,315.211c-14.199,14.191-31.365,21.285-51.506,21.285c-20.147,0-37.314-7.094-51.506-21.285
			c-14.198-14.193-21.292-31.359-21.292-51.506s7.093-37.313,21.292-51.506c14.192-14.192,31.359-21.285,51.506-21.285
			c20.141,0,37.307,7.093,51.506,21.285c14.192,14.192,21.292,31.359,21.292,51.506S232.573,301.018,218.38,315.211z
			 M412.042,315.211c-14.198,14.191-31.365,21.285-51.506,21.285c-20.147,0-37.313-7.094-51.506-21.285
			c-14.198-14.193-21.292-31.359-21.292-51.506s7.094-37.313,21.292-51.506c14.192-14.192,31.358-21.285,51.506-21.285
			c20.141,0,37.308,7.093,51.506,21.285c14.192,14.192,21.291,31.359,21.291,51.506S426.234,301.018,412.042,315.211z"/>
	</g>
</g>
<g>
</g>
<g>
</g>
<g>
</g>
<g>
</g>
<g>
</g>
<g>
</g>
<g>
</g>
<g>
</g>
<g>
</g>
<g>
</g>
<g>
</g>
<g>
</g>
<g>
</g>
<g>
</g>
<g>
</g>
</svg>
