<svg id="Capa_1" enable-background="new 0 0 512 512" height="50" viewBox="0 0 512 512" width="50"
    xmlns="http://www.w3.org/2000/svg">
    <g>
        <g>
            <path d="m169.294 130.047c-88.063-1.693-160.184 67.665-161.772 155.73-.949 52.638 23.741 99.551 62.409 129.095 3.012 2.301 4.964 5.744 5.302 9.519 1.486 16.564-12.303 31.814-21.307 39.89-2.327 2.087-.69 5.917 2.43 5.714 29.269-1.898 47.445-12.203 58.694-23.568 3.387-3.422 8.304-4.815 12.979-3.66 13.847 3.421 28.408 5.029 43.421 4.541 85.301-2.773 153.539-73.477 153.423-158.823-.117-86.501-69.446-156.783-155.579-158.438z" fill="#c8effe"/>
        </g>
        <g>
            <path d="m324.872 288.483c.12 85.354-68.123 156.055-153.427 158.824-15.012.49-29.574-1.119-43.416-4.538-4.677-1.159-9.595.24-12.983 3.658-11.244 11.364-29.424 21.668-58.688 23.567-3.118.2-4.757-3.628-2.429-5.717 4.867-4.368 11.124-10.814 15.612-18.44 11.804-4.428 24.539-14.567 30.996-21.093 3.388-3.418 8.305-4.807 12.983-3.658 13.843 3.418 26.878 6.345 41.89 5.856 85.304-2.769 151.062-70.815 150.953-156.159-.06-40.398-15.202-77.258-40.118-105.243 35.72 29.044 58.557 73.33 58.627 122.943z" fill="#99e6fc"/>
        </g>
        <g>
            <path d="m442.068 326.853c38.668-29.545 63.358-76.457 62.409-129.095-1.588-88.064-73.709-157.422-161.772-155.73-86.133 1.655-155.462 71.937-155.579 158.439-.116 85.346 68.121 156.05 153.423 158.823 15.014.488 29.575-1.12 43.422-4.541 4.675-1.155 9.592.237 12.979 3.66 11.248 11.365 29.425 21.67 58.694 23.568 3.12.202 4.757-3.627 2.43-5.714-9.004-8.076-22.793-23.326-21.307-39.89.337-3.776 2.289-7.219 5.301-9.52z" fill="#fe7ab6"/>
        </g>
        <g>
            <path d="m458.07 376.265c2.329 2.089.69 5.917-2.429 5.707-7.326-.47-13.962-1.469-19.969-2.888 2.459-.55 3.528-3.788 1.459-5.647-9.005-8.076-22.788-23.317-21.308-39.888.34-3.778 2.289-7.216 5.307-9.515 38.669-29.544 63.355-76.458 62.406-129.1-1.369-76.009-55.29-138.095-126.651-152.557 81.496 5.537 146.091 72.091 147.59 155.385.949 52.631-23.737 99.546-62.406 129.09-3.008 2.299-4.967 5.747-5.307 9.525-1.48 16.561 12.303 31.812 21.308 39.888z" fill="#fe5ca7"/>
        </g>
        <g>
            <path d="m84.236 246.704h41.583c4.14 0 7.496-3.355 7.496-7.496s-3.356-7.496-7.496-7.496h-41.583c-4.14 0-7.496 3.355-7.496 7.496s3.357 7.496 7.496 7.496z"/>
            <path d="m84.236 279.522h41.583c4.14 0 7.496-3.356 7.496-7.496s-3.356-7.496-7.496-7.496h-41.583c-4.14 0-7.496 3.356-7.496 7.496.001 4.14 3.357 7.496 7.496 7.496z"/>
            <path d="m123.305 304.843c0 4.14 3.356 7.496 7.496 7.496h47.067c4.14 0 7.496-3.355 7.496-7.496s-3.356-7.496-7.496-7.496h-47.067c-4.14 0-7.496 3.356-7.496 7.496z"/>
            <path d="m84.236 312.339h12.503c4.14 0 7.496-3.355 7.496-7.496s-3.356-7.496-7.496-7.496h-12.503c-4.14 0-7.496 3.355-7.496 7.496s3.357 7.496 7.496 7.496z"/>
            <path d="m84.236 345.698h112.095c4.14 0 7.496-3.356 7.496-7.496s-3.356-7.496-7.496-7.496h-112.095c-4.14 0-7.496 3.356-7.496 7.496.001 4.14 3.357 7.496 7.496 7.496z"/>
            <path d="m446.62 332.81c20.27-15.489 36.947-35.724 48.228-58.52 11.848-23.943 17.61-49.738 17.124-76.668-.768-42.56-17.428-82.68-46.913-112.969-2.885-2.966-7.632-3.031-10.6-.142-2.966 2.887-3.031 7.633-.142 10.6 26.814 27.546 41.967 64.049 42.665 102.782.442 24.509-4.797 47.976-15.572 69.749-10.265 20.742-25.442 39.158-43.893 53.256-4.701 3.591-7.696 8.987-8.217 14.805-1.317 14.681 6.919 28.021 15.209 37.497-17.697-2.869-31.869-9.594-42.231-20.064-5.213-5.269-12.916-7.44-20.105-5.665-13.461 3.327-27.389 4.784-41.38 4.327-39.29-1.278-76.081-17.671-103.595-46.161-27.509-28.486-42.629-65.831-42.576-105.16.054-39.825 15.461-77.396 43.383-105.791 27.888-28.361 65.123-44.4 104.845-45.163 30.673-.587 60.352 7.865 85.778 24.451 3.467 2.262 8.113 1.284 10.373-2.182 2.262-3.467 1.285-8.112-2.182-10.373-27.955-18.236-60.535-27.514-94.257-26.885-43.665.839-84.594 18.469-115.246 49.642-12.138 12.344-22.115 26.27-29.757 41.298-9.191-1.75-18.59-2.738-28.121-2.922-44.635-.818-86.799 15.608-118.723 46.364-31.883 30.717-49.884 72.171-50.688 116.725-.24 13.288 1.091 26.537 3.954 39.38.9 4.041 4.907 6.58 8.948 5.685 4.041-.901 6.586-4.907 5.685-8.948-2.606-11.684-3.816-23.745-3.598-35.847.731-40.546 17.103-78.262 46.1-106.198 29.037-27.976 67.416-42.941 108.033-42.172 7.455.143 14.818.841 22.052 2.043-7.561 19.141-11.543 39.715-11.572 60.873-.059 43.241 16.556 84.293 46.784 115.594 20.403 21.128 45.46 36.191 72.873 44.193-6.518 12.048-14.714 23.292-24.486 33.411-27.514 28.49-64.304 44.885-103.594 46.161-13.998.458-27.921-1-41.381-4.327-7.187-1.773-14.889.396-20.104 5.665-10.362 10.469-24.534 17.195-42.231 20.064 8.288-9.476 16.525-22.815 15.208-37.496-.521-5.818-3.516-11.215-8.217-14.807-19.355-14.788-35.024-34.223-45.313-56.203-1.754-3.75-6.216-5.363-9.967-3.611-3.749 1.755-5.366 6.217-3.611 9.967 11.307 24.157 28.524 45.513 49.788 61.759 1.37 1.047 2.241 2.589 2.387 4.233.519 5.786-1.239 17.849-18.846 33.64-3.468 3.111-4.543 7.894-2.739 12.185 1.772 4.215 6.169 6.881 10.659 6.59 26.964-1.749 48.341-10.421 63.536-25.775 1.545-1.561 3.73-2.183 5.853-1.656 14.794 3.656 30.096 5.258 45.464 4.756 43.207-1.405 83.654-19.421 113.891-50.731 11.674-12.088 21.313-25.632 28.749-40.193 8.502 1.634 17.178 2.62 25.971 2.906 15.369.5 30.666-1.101 45.462-4.756 2.123-.524 4.31.095 5.854 1.656 15.197 15.355 36.574 24.027 63.538 25.776 4.538.303 8.897-2.4 10.658-6.59 1.804-4.292.728-9.074-2.74-12.185-17.607-15.791-19.365-27.855-18.846-33.64.15-1.643 1.02-3.187 2.391-4.233z"/>
            <path d="m376.309 139.561v113.931c0 4.14 3.356 7.496 7.496 7.496s7.496-3.355 7.496-7.496v-113.931c0-4.14-3.356-7.496-7.496-7.496s-7.496 3.355-7.496 7.496z"/>
            <path d="m343.201 260.988c4.14 0 7.496-3.355 7.496-7.496v-113.931c0-4.14-3.356-7.496-7.496-7.496s-7.496 3.355-7.496 7.496v47.515h-63.85v-47.515c0-4.14-3.356-7.496-7.496-7.496s-7.496 3.355-7.496 7.496v113.931c0 4.14 3.356 7.496 7.496 7.496s7.496-3.355 7.496-7.496v-51.424h63.85v51.424c0 4.14 3.356 7.496 7.496 7.496z"/>
            <path d="m419.69 261.813c4.186 0 7.579-3.393 7.579-7.579s-3.393-7.579-7.579-7.579-7.579 3.393-7.579 7.579 3.393 7.579 7.579 7.579z"/>
            <path d="m419.691 231.858c4.14 0 7.496-3.355 7.496-7.496v-84.802c0-4.14-3.356-7.496-7.496-7.496s-7.496 3.355-7.496 7.496v84.802c0 4.141 3.356 7.496 7.496 7.496z"/>
        </g>
    </g>
</svg>