<?xml version="1.0" encoding="iso-8859-1"?>
<!-- Generator: Adobe Illustrator 19.0.0, SVG Export Plug-In . SVG Version: 6.00 Build 0)  -->
<svg version="1.1" id="Capa_1"
	xmlns="http://www.w3.org/2000/svg"
	xmlns:xlink="http://www.w3.org/1999/xlink" x="0px" y="0px" viewBox="0 0 512 512" width="30" height="30" style="enable-background:new 0 0 512 512;" xml:space="preserve">
	<path style="fill:#5A54E0;" d="M282.25,502h-52.5c-12.012,0-21.75-9.738-21.75-21.75v-18.313h96v18.313
	C304,492.263,294.262,502,282.25,502z"/>
	<path style="fill:#FEDA9B;" d="M410.767,164.655c0-85.785-69.845-155.256-155.77-154.65
	c-82.961,0.586-151.223,67.408-153.479,150.34c-1.178,43.314,15.46,82.742,43.117,111.496
	c26.158,27.195,40.421,63.685,40.421,101.418v1.807H327.17v-1.804c0-38.221,15.148-74.656,41.394-102.442
	C394.727,243.122,410.767,205.762,410.767,164.655z"/>
	<path style="fill:#6A80FF;" d="M307.173,461.938h-102.12c-11.044,0-19.997-8.953-19.997-19.997v-66.875H327.17v66.875
	C327.171,452.984,318.218,461.938,307.173,461.938z"/>
	<path d="M256.124,0.001c-0.396,0-0.801,0.001-1.197,0.004c-42.734,0.301-83.195,17.044-113.931,47.145
	c-30.742,30.107-48.313,70.211-49.474,112.922c-1.211,44.509,15.092,86.664,45.906,118.701
	c24.265,25.228,37.628,58.783,37.628,94.486v68.682c0,14.111,9.797,25.97,22.943,29.151v9.158c0,17.507,14.243,31.75,31.75,31.75
	h52.5c17.507,0,31.75-14.243,31.75-31.75v-9.105c13.261-3.099,23.171-15.012,23.171-29.204v-68.68
	c0-35.236,13.73-69.179,38.663-95.575c28.976-30.677,44.934-70.819,44.934-113.032c0-44.2-17.274-85.695-48.64-116.84
	C341.046,16.952,299.896,0.001,256.124,0.001z M294,480.25c0,6.479-5.271,11.75-11.75,11.75h-52.5c-6.479,0-11.75-5.271-11.75-11.75
	v-8.313h76V480.25z M317.171,441.94c0,5.512-4.484,9.997-9.997,9.997H304h-96h-2.946c-5.513,0-9.997-4.485-9.997-9.997v-56.875
	h122.114L317.171,441.94L317.171,441.94z M220.404,218.579h-10.958c-4.956,0-8.988-4.032-8.988-8.989v-1.55
	c0-4.957,4.032-8.989,8.988-8.989h1.97c4.956,0,8.988,4.033,8.988,8.989L220.404,218.579L220.404,218.579z M271.559,365.065h-31.154
	V238.579h31.154V365.065z M361.295,263.953c-26.522,28.08-41.938,63.714-43.908,101.113h-25.828V238.579h8.988
	c15.984,0,28.989-13.004,28.989-28.989v-1.55c0-15.985-13.005-28.989-28.989-28.989s-28.988,13.004-28.988,28.989v10.539h-31.154
	V208.04c0-15.985-13.004-28.989-28.988-28.989h-1.97c-15.984,0-28.988,13.004-28.988,28.989v1.55
	c0,15.984,13.004,28.989,28.988,28.989h10.958v126.486h-25.554c-1.909-37.823-17.01-73.128-43.008-100.157
	c-27.07-28.144-41.393-65.183-40.328-104.292c2.094-76.99,66.491-140.068,143.553-140.612
	c38.894-0.273,75.414,14.643,102.968,42.002c27.557,27.362,42.732,63.817,42.732,102.648
	C400.768,201.74,386.749,237.004,361.295,263.953z M291.559,218.579V208.04c0-4.957,4.032-8.989,8.988-8.989
	c4.957,0,8.989,4.033,8.989,8.989v1.55c0,4.957-4.032,8.989-8.989,8.989H291.559z"/>
	<path d="M321.058,68.88c-19.526-13.335-42.414-20.295-66.131-20.128c-5.523,0.039-9.969,4.548-9.93,10.071
	c0.039,5.499,4.509,9.929,9.998,9.929c0.024,0,0.049,0,0.072,0c0.235-0.001,0.464-0.002,0.698-0.002
	c39.379,0,74.262,23.525,88.992,60.088c1.57,3.898,5.319,6.266,9.278,6.266c1.244,0,2.51-0.233,3.734-0.727
	c5.122-2.064,7.603-7.89,5.538-13.012C354.717,100.039,340.107,81.89,321.058,68.88z"/>
	<path d="M354.6,157.581c-1.87,1.86-2.93,4.44-2.93,7.07c0,2.64,1.06,5.21,2.93,7.07c1.86,1.87,4.43,2.93,7.07,2.93
	c2.63,0,5.21-1.06,7.07-2.93c1.859-1.86,2.93-4.43,2.93-7.07c0-2.63-1.07-5.21-2.93-7.07s-4.44-2.93-7.07-2.93
	S356.46,155.721,354.6,157.581z"/>
	<path d="M438.728,85.512c2.56,0,5.118-0.976,7.071-2.929l18.631-18.631c3.905-3.905,3.905-10.237,0-14.143
	c-3.906-3.905-10.236-3.905-14.143,0l-18.631,18.631c-3.905,3.905-3.905,10.237,0,14.143
	C433.609,84.536,436.168,85.512,438.728,85.512z"/>
	<path d="M445.799,246.727c-3.905-3.905-10.235-3.905-14.143,0c-3.905,3.905-3.905,10.237,0,14.142l18.631,18.631
	c1.953,1.953,4.512,2.929,7.071,2.929c2.559,0,5.118-0.977,7.071-2.929c3.905-3.905,3.905-10.237,0-14.142L445.799,246.727z"/>
	<path d="M502,154.655h-26.349c-5.522,0-10,4.477-10,10s4.478,10,10,10H502c5.522,0,10-4.477,10-10S507.522,154.655,502,154.655z"/>
	<path d="M61.713,49.81c-3.906-3.905-10.236-3.905-14.143,0c-3.905,3.905-3.905,10.237,0,14.143l18.631,18.631
	c1.953,1.953,4.512,2.929,7.071,2.929s5.118-0.976,7.071-2.929c3.905-3.905,3.905-10.237,0-14.143L61.713,49.81z"/>
	<path d="M66.201,246.727L47.57,265.357c-3.905,3.905-3.905,10.237,0,14.142c1.953,1.953,4.512,2.929,7.071,2.929
	s5.118-0.977,7.071-2.929l18.631-18.631c3.905-3.905,3.905-10.237,0-14.142C76.438,242.821,70.107,242.821,66.201,246.727z"/>
	<path d="M36.349,154.655H10c-5.522,0-10,4.477-10,10s4.478,10,10,10h26.349c5.522,0,10-4.477,10-10S41.871,154.655,36.349,154.655z" />
	<g>
	</g>
	<g>
	</g>
	<g>
	</g>
	<g>
	</g>
	<g>
	</g>
	<g>
	</g>
	<g>
	</g>
	<g>
	</g>
	<g>
	</g>
	<g>
	</g>
	<g>
	</g>
	<g>
	</g>
	<g>
	</g>
	<g>
	</g>
	<g>
	</g>
</svg>
