<?xml version="1.0" encoding="iso-8859-1"?>
<!-- Generator: Adobe Illustrator 19.0.0, SVG Export Plug-In . SVG Version: 6.00 Build 0)  -->
<svg version="1.1" id="Capa_1"
	xmlns="http://www.w3.org/2000/svg"
	xmlns:xlink="http://www.w3.org/1999/xlink" x="0px" y="0px" viewBox="0 0 512 512" width="30" height="30" style="enable-background:new 0 0 512 512;" xml:space="preserve">
	<path style="fill:#FFFFFF;" d="M438,502H74c-11.046,0-20-8.954-20-20V30c0-11.046,8.954-20,20-20h364c11.046,0,20,8.954,20,20v452
	C458,493.046,449.046,502,438,502z"/>
	<circle style="fill:#A5DDFF;" cx="256" cy="173" r="123"/>
	<path d="M54,187c-2.63,0-5.21-1.07-7.07-2.931C45.069,182.21,44,179.63,44,177s1.069-5.21,2.93-7.07S51.37,167,54,167
	s5.21,1.069,7.069,2.93C62.93,171.79,64,174.37,64,177s-1.07,5.21-2.931,7.069C59.21,185.93,56.63,187,54,187z"/>
	<path d="M438,512H74c-16.542,0-30-13.458-30-30V214.333c0-5.522,4.478-10,10-10s10,4.478,10,10V482c0,5.514,4.486,10,10,10h364
	c5.514,0,10-4.486,10-10V30c0-5.514-4.486-10-10-10H235.667c-5.522,0-10-4.478-10-10s4.478-10,10-10H438c16.542,0,30,13.458,30,30
	v452C468,498.542,454.542,512,438,512z"/>
	<path style="fill:#FFCDAC;" d="M295,157.251v9.75c0,21.539-17.461,39-39,39l0,0l0,0c-21.539,0-39-17.461-39-39v-9.75
	c0-21.539,17.461-39,39-39l0,0C277.539,118.25,295,135.711,295,157.251z"/>
	<path style="fill:#95E540;" d="M256,206.001L256,206.001c-38.071,0-70.596,23.65-83.749,57.05
	c21.961,20.433,51.386,32.951,83.749,32.951s61.788-12.517,83.749-32.951C326.596,229.651,294.071,206.001,256,206.001z"/>
	<path d="M256,40c-6.804,0-13.642,0.52-20.324,1.544c-5.459,0.838-9.206,5.941-8.369,11.4s5.943,9.201,11.4,8.369
	C244.39,60.441,250.208,60,256,60c62.309,0,113.001,50.692,113.001,113.001c0,27.67-10.002,53.043-26.574,72.71
	c-7.333-12.61-17.349-23.487-29.506-31.924c-7.095-4.924-14.718-8.854-22.698-11.763c9.108-8.903,14.777-21.31,14.777-35.022v-9.75
	c0-27.02-21.981-49.001-49-49.001s-49,21.981-49,49.001v9.75c0,13.712,5.668,26.119,14.777,35.022
	c-7.979,2.909-15.602,6.839-22.698,11.763c-12.215,8.478-22.271,19.416-29.613,32.102c-12.627-15.005-21.453-33.461-24.906-54.05
	c-0.913-5.445-6.074-9.119-11.516-8.208c-5.447,0.913-9.122,6.069-8.209,11.516c5.142,30.66,21.059,58.724,44.82,79.021
	c24.031,20.529,54.696,31.835,86.344,31.835c73.337,0,133.001-59.664,133.001-133.001S329.337,40,256,40z M227,167.001v-9.75
	c0-15.991,13.01-29.001,29-29.001s29,13.01,29,29.001v9.75c0,15.99-13.01,29-29,29S227,182.991,227,167.001z M184.306,260.52
	c13.428-27.252,40.879-44.519,71.694-44.519c30.751,0,58.15,17.196,71.608,44.349c-19.507,16.021-44.454,25.652-71.608,25.652
	C228.926,286.002,203.896,276.548,184.306,260.52z"/>
	<path d="M348.357,418.002h-142c-5.522,0-10-4.478-10-10s4.478-10,10-10h142c5.522,0,10,4.478,10,10S353.88,418.002,348.357,418.002z
	"/>
	<path d="M163.64,362c-2.63,0-5.21-1.07-7.07-2.931c-1.859-1.859-2.93-4.43-2.93-7.069c0-2.63,1.07-5.21,2.93-7.07
	c1.86-1.86,4.44-2.93,7.07-2.93s5.21,1.069,7.07,2.93c1.87,1.86,2.93,4.44,2.93,7.07s-1.06,5.21-2.93,7.069
	C168.85,360.93,166.27,362,163.64,362z"/>
	<path d="M163.64,418c-2.63,0-5.21-1.07-7.07-2.931c-1.859-1.859-2.93-4.43-2.93-7.069c0-2.63,1.07-5.21,2.93-7.07
	c1.86-1.86,4.44-2.93,7.07-2.93c2.64,0,5.21,1.069,7.07,2.93c1.87,1.86,2.93,4.44,2.93,7.07c0,2.64-1.06,5.21-2.93,7.069
	C168.85,416.93,166.27,418,163.64,418z"/>
	<path d="M348.357,362.002h-142c-5.522,0-10-4.478-10-10s4.478-10,10-10h142c5.522,0,10,4.478,10,10S353.88,362.002,348.357,362.002z
	"/>
	<circle style="fill:#FE6663;" cx="126" cy="82" r="72"/>
	<path d="M114.916,114.338c-2.56,0-5.118-0.977-7.071-2.929l-18.2-18.2c-3.905-3.905-3.905-10.237,0-14.143
	c3.906-3.904,10.236-3.904,14.143,0l11.129,11.129l32.566-32.566c3.906-3.904,10.236-3.904,14.143,0
	c3.905,3.905,3.905,10.237,0,14.143l-39.638,39.638C120.034,113.361,117.476,114.338,114.916,114.338z"/>
	<path d="M126,164c-45.215,0-82-36.785-82-82S80.785,0,126,0s82,36.785,82,82S171.215,164,126,164z M126,20
	c-34.187,0-62,27.813-62,62s27.813,62,62,62s62-27.813,62-62S160.187,20,126,20z"/>
</svg>
