<?xml version="1.0" encoding="iso-8859-1"?>
<!-- Generator: Adobe Illustrator 19.1.0, SVG Export Plug-In . SVG Version: 6.00 Build 0)  -->
<svg version="1.1" id="Capa_1"
	xmlns="http://www.w3.org/2000/svg"
	xmlns:xlink="http://www.w3.org/1999/xlink" x="0px" y="0px" viewBox="0 0 65.427 65.427" width="30" height="30" style="enable-background:new 0 0 65.427 65.427;" xml:space="preserve">
	<g>
		<g id="group-6svg">
			<path id="path-1_46_" style="fill:#EDC951;" d="M65.427,35.317c0,16.371-13.274,29.643-29.647,29.643
			c-16.374,0-29.647-13.272-29.647-29.643c0-16.372,13.273-29.644,29.647-29.644C52.153,5.673,65.427,18.945,65.427,35.317z"/>
			<path id="path-2_46_" d="M35.039,48.23h-5.398c-6.895,0-12.296-5.312-12.296-12.094c0-0.829,0.672-1.5,1.5-1.5
			c0.829,0,1.5,0.671,1.5,1.5c0,5.1,4.083,9.095,9.296,9.095h5.398c5.213,0,9.296-3.907,9.296-8.894c0-0.829,0.671-1.5,1.5-1.5
			c0.829,0,1.5,0.671,1.5,1.5C47.335,43.007,41.934,48.23,35.039,48.23z"/>
			<path id="path-3_46_" d="M25.297,23.278c-0.383,0-0.767-0.146-1.06-0.439c-1.422-1.421-3.774-1.472-5.135-0.11
			c-0.586,0.586-1.536,0.586-2.122,0c-0.586-0.585-0.586-1.535,0-2.12c2.513-2.513,6.807-2.462,9.378,0.109
			c0.586,0.585,0.586,1.535,0,2.121C26.065,23.132,25.681,23.278,25.297,23.278z"/>
			<path id="path-4_46_" d="M45.702,23.278c-0.384,0-0.768-0.146-1.061-0.439c-1.42-1.421-3.773-1.472-5.135-0.11
			c-0.586,0.586-1.535,0.586-2.121,0c-0.586-0.585-0.586-1.535,0-2.12c2.512-2.513,6.806-2.462,9.377,0.109
			c0.586,0.585,0.586,1.535,0,2.121C46.469,23.132,46.085,23.278,45.702,23.278z"/>
			<path id="path-5_46_" d="M31.147,62.754C13.973,62.754,0,48.783,0,31.611S13.973,0.468,31.147,0.468
			c17.175,0,31.147,13.971,31.147,31.143S48.322,62.754,31.147,62.754z M31.147,3.468C15.627,3.468,3,16.092,3,31.611
			s12.627,28.144,28.147,28.144c15.521,0,28.147-12.625,28.147-28.144S46.668,3.468,31.147,3.468z"/>
		</g>
	</g>
</svg>
